<svg width="524" height="415" viewBox="0 0 524 415" fill="none" xmlns="http://www.w3.org/2000/svg">
<path fill-rule="evenodd" clip-rule="evenodd" d="M37.1217 221.215L0.790374 380.784C-3.19959 398.308 10.119 415 28.0917 415H254V240H71.5826C56.7857 240 44.3052 232.343 37.1217 221.215ZM269 240V415H495.061C512.985 415 526.293 398.393 522.388 380.9L486.828 221.589C479.601 232.523 467.221 240 452.612 240H269Z" fill="black"/>
<path fill-rule="evenodd" clip-rule="evenodd" d="M133.991 0C122.21 0 111.689 7.37478 107.67 18.4497L45.6247 189.45C38.9999 207.708 52.5229 227 71.9456 227H452.918C472.097 227 485.598 208.154 479.43 189.994L421.346 18.9944C417.488 7.63833 406.827 0 394.833 0H133.991ZM204.622 155.7L203.272 159H257.122L258.472 155.7L250.072 154.05C246.872 153.45 245.022 152.6 244.522 151.5C244.022 150.4 244.372 148.3 245.572 145.2L278.872 63H284.272C290.172 63 294.822 64.15 298.222 66.45C301.622 68.75 303.322 72.55 303.322 77.85C303.322 82.85 302.272 87.65 300.172 92.25C298.072 96.75 295.222 100.8 291.622 104.4C288.022 108 283.872 110.9 279.172 113.1C274.472 115.3 269.472 116.55 264.172 116.85L263.872 117.9C266.472 118.7 269.372 119.1 272.572 119.1C278.472 119.1 284.422 118.15 290.422 116.25C296.522 114.35 302.122 111.7 307.222 108.3C312.322 104.8 316.422 100.7 319.522 96C322.722 91.3 324.322 86.15 324.322 80.55C324.322 72.95 321.022 67.3 314.422 63.6C307.922 59.9 299.172 58.05 288.172 58.05H244.072L242.722 61.35L249.772 63C251.772 63.5 253.222 64 254.122 64.5C255.122 65 255.622 65.8 255.622 66.9C255.622 68 255.172 69.65 254.272 71.85L224.572 145.2C223.772 147.3 222.922 148.9 222.022 150C221.222 151.1 220.122 151.95 218.722 152.55C217.322 153.05 215.372 153.55 212.872 154.05L204.622 155.7Z" fill="black"/>
</svg>
